<?xml version="1.0" standalone="no"?>
<!DOCTYPE svg PUBLIC "-//W3C//DTD SVG 20010904//EN"
 "http://www.w3.org/TR/2001/REC-SVG-20010904/DTD/svg10.dtd">
<svg version="1.0" xmlns="http://www.w3.org/2000/svg"
 width="512.000000pt" height="512.000000pt" viewBox="0 0 512.000000 512.000000"
 preserveAspectRatio="xMidYMid meet">

<g transform="translate(0.000000,512.000000) scale(0.100000,-0.100000)"
fill="#000000" stroke="none">
<path d="M2360 5114 c-264 -24 -510 -88 -687 -177 -155 -79 -336 -232 -440
-372 -159 -213 -259 -498 -288 -826 l-7 -76 -57 -16 c-74 -21 -140 -78 -172
-149 -24 -53 -24 -54 -24 -433 l0 -380 25 -48 c29 -59 86 -112 149 -140 61
-28 264 -30 325 -4 21 9 40 17 41 17 2 0 6 -21 10 -48 11 -73 87 -297 138
-402 25 -52 70 -135 101 -183 l56 -88 -43 -171 -42 -170 27 -49 28 -49 -23 -4
c-356 -77 -634 -180 -1058 -393 -277 -139 -336 -190 -391 -339 -20 -53 -23
-81 -26 -297 -4 -257 0 -286 44 -306 35 -16 4992 -16 5027 0 42 19 47 46 47
277 0 274 -13 330 -108 454 -54 72 -128 121 -342 227 -350 174 -650 290 -895
346 -169 38 -161 33 -130 75 14 18 25 44 25 57 0 13 -18 96 -40 183 l-40 160
42 63 c37 56 49 66 100 86 109 42 191 95 269 171 100 98 140 178 174 343 4 20
11 27 28 27 35 0 119 45 154 81 17 19 42 54 55 79 23 45 23 46 23 425 0 379 0
380 -24 433 -32 71 -98 128 -172 149 l-57 16 -7 76 c-45 501 -248 883 -589
1113 -265 177 -554 255 -976 262 -113 2 -225 2 -250 0z m400 -175 c628 -57
1038 -356 1185 -864 28 -96 50 -223 60 -337 l7 -77 -46 -12 c-25 -6 -49 -10
-53 -9 -4 1 -15 37 -25 79 -50 233 -185 475 -362 653 -517 517 -1325 542
-1870 59 -212 -188 -367 -450 -425 -716 -10 -44 -22 -79 -27 -78 -5 1 -28 7
-52 13 l-44 11 7 77 c36 427 187 726 473 939 273 204 720 304 1172 262z m-80
-339 c462 -49 863 -369 1009 -806 60 -180 63 -216 58 -737 -3 -436 -5 -479
-25 -562 -30 -131 -58 -217 -109 -332 -50 -113 -38 -104 -168 -133 -153 -34
-549 -68 -808 -70 -38 0 -77 -41 -77 -79 0 -17 10 -42 24 -58 l25 -28 188 2
c197 2 381 16 523 38 47 7 87 11 89 9 7 -6 -130 -158 -188 -207 -153 -131
-345 -227 -518 -257 -97 -17 -276 -8 -373 20 -101 28 -259 107 -345 172 -216
163 -412 415 -504 651 -99 255 -111 346 -111 885 0 396 2 443 20 533 77 376
309 676 654 845 206 100 414 137 636 114z m-1562 -1111 c17 -6 39 -23 49 -37
17 -25 18 -55 18 -373 0 -373 -1 -383 -53 -410 -33 -18 -190 -19 -223 -1 -53
28 -54 32 -57 387 -3 376 0 398 58 427 40 21 159 24 208 7z m3078 -4 c61 -25
64 -43 64 -408 0 -205 -4 -335 -11 -355 -18 -53 -51 -67 -161 -67 -93 0 -98 1
-127 29 l-31 30 0 360 c1 390 -1 381 56 411 38 19 163 20 210 0z m-244 -992
l49 -18 -6 -45 c-10 -68 -61 -154 -127 -215 -33 -30 -63 -55 -68 -55 -5 0 6
42 24 93 19 51 42 130 52 175 9 45 19 82 22 82 2 0 27 -8 54 -17z m-2046
-1083 c137 -95 302 -166 450 -194 40 -7 68 -18 67 -24 -4 -18 -213 -486 -221
-494 -4 -4 -115 142 -247 324 -132 182 -259 357 -283 389 l-42 58 16 75 17 75
84 -79 c46 -43 118 -102 159 -130z m1542 1 c-24 -32 -151 -207 -283 -389 -132
-182 -243 -328 -247 -324 -8 8 -217 476 -221 494 -1 6 27 17 67 24 215 41 428
155 608 324 l83 78 18 -74 18 -75 -43 -58z m200 -237 c275 -56 620 -188 1015
-386 158 -79 223 -131 258 -211 21 -47 24 -69 27 -229 l4 -178 -946 0 -946 0
-5 22 c-16 70 -55 274 -55 291 0 20 499 716 514 717 5 0 65 -12 134 -26z
m-1776 -329 c136 -187 247 -350 248 -361 0 -18 -37 -216 -55 -291 l-5 -23
-946 0 -946 0 4 178 c3 169 4 179 30 232 15 31 40 68 56 83 54 52 443 246 695
346 234 94 560 184 641 178 27 -2 55 -37 278 -342z m888 -241 c0 -2 -90 -4
-200 -4 -110 0 -200 4 -200 8 0 8 184 424 196 444 5 7 204 -430 204 -448z m78
-221 c6 -27 16 -77 22 -113 6 -36 13 -73 16 -82 5 -17 -15 -18 -315 -18 -177
0 -321 2 -321 4 0 2 11 58 25 126 14 68 25 124 25 126 0 2 121 4 269 4 l269 0
10 -47z"/>
</g>
</svg>
