<?xml version="1.0" standalone="no"?>
<!DOCTYPE svg PUBLIC "-//W3C//DTD SVG 20010904//EN"
 "http://www.w3.org/TR/2001/REC-SVG-20010904/DTD/svg10.dtd">
<svg version="1.0" xmlns="http://www.w3.org/2000/svg"
 width="512.000000pt" height="512.000000pt" viewBox="0 0 512.000000 512.000000"
 preserveAspectRatio="xMidYMid meet">

<g transform="translate(0.000000,512.000000) scale(0.100000,-0.100000)"
fill="#000000" stroke="none">
<path d="M3325 4545 c-366 -99 -423 -117 -442 -140 -13 -14 -23 -36 -23 -48 0
-12 41 -173 90 -357 50 -184 90 -338 90 -341 0 -4 -24 3 -52 14 l-53 22 -1311
3 -1312 2 -26 -31 c-40 -47 -34 -78 34 -186 86 -137 104 -189 104 -298 0 -103
-16 -152 -85 -266 l-41 -69 -115 0 c-63 0 -123 -5 -134 -10 -22 -12 -49 -60
-49 -87 0 -10 29 -66 65 -123 85 -137 109 -213 103 -325 -6 -96 -28 -150 -113
-286 -58 -90 -62 -106 -43 -142 22 -41 38 -46 159 -47 l117 0 47 -76 c75 -120
89 -164 89 -274 -1 -111 -19 -167 -87 -270 l-42 -65 -122 -5 c-141 -6 -158
-14 -168 -82 -4 -24 -5 -157 -3 -295 3 -247 3 -253 26 -275 l23 -23 2487 -3
c1691 -2 2498 0 2523 7 23 7 40 20 47 36 8 18 12 114 12 304 0 260 -1 280 -19
302 l-19 24 -294 5 -293 5 85 23 c108 28 132 41 149 77 13 27 12 40 -18 150
-17 66 -65 255 -106 420 -41 165 -81 314 -89 330 -18 35 -436 1588 -436 1617
0 28 -87 358 -99 371 -5 7 -35 107 -66 222 -31 116 -60 224 -66 240 -10 32
-54 66 -86 64 -10 0 -207 -52 -438 -114z m428 -225 c20 -74 37 -143 39 -154 3
-17 -34 -29 -326 -107 -182 -49 -331 -88 -332 -86 -7 7 -84 311 -79 315 10 10
650 179 656 173 4 -3 22 -67 42 -141z m110 -428 c11 -40 17 -75 15 -78 -7 -7
-620 -174 -639 -174 -11 0 -20 21 -33 76 -10 41 -16 77 -15 79 8 7 625 174
638 172 9 -1 22 -31 34 -75z m71 -259 c19 -63 376 -1426 378 -1444 3 -21 -14
-27 -322 -109 -284 -77 -326 -85 -331 -71 -4 9 -81 300 -173 646 -92 347 -178
670 -193 718 -14 48 -23 90 -20 93 4 5 631 182 649 183 4 1 9 -7 12 -16z
m-972 -136 c84 -41 152 -120 178 -206 24 -81 25 -109 5 -184 -26 -100 -99
-187 -194 -231 l-46 -21 -1202 -3 -1202 -2 35 75 c24 49 42 108 52 170 15 88
15 102 0 190 -10 62 -28 121 -52 170 l-35 75 1202 -2 1202 -3 57 -28z m397
-1019 c63 -233 144 -538 182 -678 37 -140 90 -339 118 -441 28 -103 51 -194
51 -203 0 -14 -27 -16 -256 -16 l-256 0 16 22 c93 130 128 262 107 403 -14 84
-65 194 -121 258 -52 59 -146 122 -215 143 l-54 17 28 36 c145 189 148 460 7
629 -15 16 -26 34 -26 39 0 6 19 15 43 22 65 20 148 75 203 134 27 30 51 55
54 56 3 1 57 -189 119 -421z m-714 187 c109 -28 195 -106 236 -213 28 -76 23
-186 -11 -258 -31 -63 -101 -133 -165 -164 l-50 -25 -1202 -3 c-662 -1 -1203
0 -1203 2 0 2 13 32 30 67 81 174 81 369 0 529 -16 33 -30 64 -30 70 0 7 374
10 1168 10 1015 0 1176 -2 1227 -15z m1744 -752 c11 -42 20 -78 18 -79 -4 -3
-635 -174 -644 -174 -10 0 -50 157 -42 164 6 7 610 165 630 165 12 1 22 -19
38 -76z m-1525 -93 c119 -19 215 -92 264 -198 37 -81 37 -193 0 -274 -49 -106
-145 -179 -264 -198 -56 -9 -2364 -15 -2364 -6 0 2 16 37 35 78 84 176 84 350
0 526 -19 41 -35 76 -35 78 0 9 2308 3 2364 -6z m1633 -315 c23 -88 40 -161
38 -163 -3 -3 -631 -179 -651 -182 -4 -1 -86 331 -83 335 8 7 633 174 644 171
5 -1 28 -74 52 -161z m453 -705 l0 -170 -2387 2 -2388 3 -3 168 -2 167 2390 0
2390 0 0 -170z"/>
<path d="M3616 3367 c-19 -19 -26 -37 -26 -63 0 -34 236 -943 262 -1007 16
-41 51 -61 93 -53 40 8 65 38 65 81 -1 56 -265 1015 -286 1035 -10 11 -33 22
-51 26 -26 5 -37 1 -57 -19z"/>
<path d="M925 3273 c-65 -16 -88 -98 -39 -144 l26 -24 968 0 968 0 26 24 c36
34 36 88 0 122 l-26 24 -951 1 c-524 1 -961 0 -972 -3z"/>
<path d="M630 2400 c-42 -42 -32 -111 20 -137 37 -19 1913 -19 1950 0 38 19
54 60 40 102 -6 19 -20 40 -30 45 -12 6 -366 10 -989 10 -953 0 -971 0 -991
-20z"/>
<path d="M885 1545 c-34 -33 -34 -87 0 -120 l24 -25 971 0 971 0 24 25 c17 16
25 35 25 60 0 25 -8 44 -25 60 l-24 25 -971 0 -971 0 -24 -25z"/>
</g>
</svg>
