<?xml version="1.0" standalone="no"?>
<!DOCTYPE svg PUBLIC "-//W3C//DTD SVG 20010904//EN"
 "http://www.w3.org/TR/2001/REC-SVG-20010904/DTD/svg10.dtd">
<svg version="1.0" xmlns="http://www.w3.org/2000/svg"
 width="50.000000pt" height="50.000000pt" viewBox="0 0 50.000000 50.000000"
 preserveAspectRatio="xMidYMid meet">

<g transform="translate(0.000000,50.000000) scale(0.100000,-0.100000)"
fill="#000000" stroke="none">
<path d="M70 260 l0 -230 163 0 c98 0 167 -4 173 -10 7 -7 24 6 53 40 42 49
42 50 17 50 -24 0 -26 3 -26 45 0 25 -4 45 -10 45 -6 0 -10 33 -10 78 l0 78
-68 67 -68 67 -112 0 -112 0 0 -230z m330 98 c0 -4 -25 -8 -55 -8 l-55 0 0 62
0 62 55 -54 c30 -30 55 -58 55 -62z m-164 -80 l17 -33 15 33 c11 23 22 32 39
32 l24 0 -26 -45 -26 -44 26 -46 27 -45 -25 0 c-18 0 -28 8 -37 30 -7 17 -16
30 -20 30 -4 0 -13 -13 -20 -30 -9 -21 -19 -30 -36 -30 l-24 0 27 48 26 47
-27 43 -26 42 25 0 c18 0 29 -9 41 -32z m194 -143 c0 -35 4 -45 17 -45 14 0
12 -4 -7 -25 l-24 -25 -24 22 c-19 19 -21 24 -8 26 12 3 16 15 16 48 0 32 4
44 15 44 11 0 15 -12 15 -45z"/>
</g>
</svg>
