<?xml version="1.0" standalone="no"?>
<!DOCTYPE svg PUBLIC "-//W3C//DTD SVG 20010904//EN"
 "http://www.w3.org/TR/2001/REC-SVG-20010904/DTD/svg10.dtd">
<svg version="1.0" xmlns="http://www.w3.org/2000/svg"
 width="512.000000pt" height="512.000000pt" viewBox="0 0 512.000000 512.000000"
 preserveAspectRatio="xMidYMid meet">

<g transform="translate(0.000000,512.000000) scale(0.100000,-0.100000)"
fill="#000000" stroke="none">
<path d="M2255 4790 c-140 -22 -305 -141 -373 -268 -55 -104 -63 -149 -69
-374 l-6 -208 -498 0 -497 0 -31 -31 -31 -31 0 -573 0 -573 30 -30 30 -30 267
-4 268 -3 63 -29 c77 -36 143 -105 171 -182 70 -185 -49 -386 -249 -424 -29
-5 -158 -10 -286 -10 l-232 0 -31 -31 -31 -31 0 -573 0 -573 31 -31 31 -31
577 0 577 0 30 31 29 30 5 277 c5 271 6 278 30 326 33 65 94 124 160 155 72
34 181 36 252 4 65 -30 129 -92 164 -160 l29 -58 3 -272 3 -273 30 -30 31 -30
577 0 577 0 30 31 29 30 3 498 3 498 212 5 c193 5 218 8 277 30 419 155 487
705 117 948 -107 70 -162 82 -399 88 l-207 4 -3 498 -3 499 -29 30 -30 31
-500 2 -501 3 -6 215 c-6 232 -13 271 -68 365 -113 196 -330 299 -556 265z
m214 -231 c69 -30 124 -82 162 -151 l34 -63 5 -276 c5 -297 5 -296 61 -325 23
-12 111 -14 514 -14 l485 0 0 -472 c0 -285 4 -487 10 -509 21 -74 20 -73 324
-79 253 -5 274 -7 320 -28 75 -34 129 -84 166 -154 31 -57 34 -71 34 -143 0
-72 -3 -86 -34 -143 -37 -70 -91 -120 -166 -154 -46 -21 -66 -23 -320 -28
-304 -6 -303 -5 -324 -79 -6 -22 -10 -224 -10 -508 l0 -473 -425 0 -425 0 0
184 c0 212 -8 265 -54 362 -126 267 -450 379 -714 247 -131 -66 -239 -196
-279 -337 -9 -33 -16 -123 -20 -253 l-6 -203 -423 0 -424 0 0 425 0 425 166 0
c203 0 288 12 382 55 132 61 251 203 286 341 20 79 20 199 0 277 -50 193 -235
358 -431 387 -37 5 -143 10 -235 10 l-168 0 0 425 0 425 491 0 c445 0 494 2
520 17 55 33 59 56 59 335 0 250 0 254 26 308 76 164 256 237 413 169z"/>
</g>
</svg>
