<?xml version="1.0" standalone="no"?>
<!DOCTYPE svg PUBLIC "-//W3C//DTD SVG 20010904//EN"
 "http://www.w3.org/TR/2001/REC-SVG-20010904/DTD/svg10.dtd">
<svg version="1.0" xmlns="http://www.w3.org/2000/svg"
 width="512.000000pt" height="512.000000pt" viewBox="0 0 512.000000 512.000000"
 preserveAspectRatio="xMidYMid meet">

<g transform="translate(0.000000,512.000000) scale(0.100000,-0.100000)"
fill="#000000" stroke="none">
<path d="M2400 5111 c-511 -55 -963 -377 -1178 -841 -159 -341 -181 -727 -61
-1084 151 -452 522 -807 984 -941 255 -75 555 -75 810 0 755 219 1206 997
1019 1755 -66 268 -192 490 -389 685 -222 221 -482 358 -778 411 -102 18 -308
25 -407 15z m90 -489 l0 -368 -72 4 c-181 8 -514 71 -505 96 3 6 19 47 36 91
66 171 192 356 298 438 82 62 169 105 221 106 l22 1 0 -368z m261 322 c120
-63 219 -168 312 -329 50 -87 123 -262 114 -272 -23 -23 -338 -77 -499 -85
l-68 -4 0 369 0 369 38 -7 c20 -4 67 -22 103 -41z m401 -90 c40 -20 111 -62
157 -93 100 -66 266 -222 259 -242 -4 -13 -209 -120 -253 -133 -18 -5 -24 4
-49 72 -52 143 -157 321 -242 414 -24 26 -44 50 -44 52 0 8 88 -28 172 -70z
m-1079 23 c-86 -93 -186 -264 -248 -424 l-27 -71 -31 10 c-58 21 -231 114
-235 127 -7 20 160 177 259 243 84 57 281 158 308 158 7 0 -4 -19 -26 -43z
m-570 -484 c23 -15 88 -48 145 -74 57 -26 105 -49 108 -51 2 -3 -7 -58 -21
-124 -23 -112 -37 -219 -51 -396 l-6 -78 -238 0 -238 0 5 63 c12 164 54 331
114 467 36 79 120 220 131 220 5 0 27 -12 51 -27z m2189 -31 c113 -178 183
-399 201 -629 l5 -63 -244 0 -244 0 0 58 c0 111 -50 458 -75 524 -4 10 18 24
72 46 43 17 112 51 153 76 41 24 80 44 85 45 6 0 26 -25 47 -57z m-1702 -162
c105 -27 327 -60 400 -60 30 0 65 -3 78 -6 l22 -6 0 -229 0 -229 -345 0 -346
0 5 58 c3 31 8 93 11 137 6 90 17 162 42 282 14 65 21 82 33 78 8 -2 53 -14
100 -25z m1244 -44 c25 -104 45 -249 52 -374 l7 -112 -341 0 -342 0 0 229 0
229 23 6 c12 3 47 6 77 6 76 0 307 36 415 64 50 12 91 23 92 22 1 -1 9 -32 17
-70z m-1544 -673 c0 -67 33 -287 55 -373 8 -32 15 -62 15 -67 0 -5 -26 -20
-57 -33 -70 -28 -177 -82 -220 -110 l-31 -21 -32 47 c-48 69 -116 210 -149
310 -27 80 -61 241 -61 287 0 16 18 17 240 17 l240 0 0 -57z m800 -127 l0
-183 -97 -7 c-135 -10 -279 -32 -401 -61 -57 -14 -107 -25 -111 -25 -17 0 -71
311 -71 408 l0 52 340 0 340 0 0 -184z m795 137 c-3 -27 -9 -88 -15 -138 -10
-91 -43 -262 -52 -271 -3 -2 -52 7 -109 21 -123 29 -267 51 -401 61 l-98 7 0
183 0 184 340 0 341 0 -6 -47z m601 -10 c-20 -164 -91 -369 -177 -513 -28 -47
-52 -86 -54 -88 -2 -2 -22 9 -45 23 -49 31 -203 107 -248 123 l-31 10 14 59
c27 108 65 370 65 439 0 2 109 4 241 4 l241 0 -6 -57z m-1396 -804 l0 -371
-32 7 c-62 12 -173 74 -236 130 -108 98 -191 220 -260 385 -57 133 -57 131 3
147 142 37 352 69 478 72 l47 1 0 -371z m320 356 c74 -8 164 -21 200 -29 137
-30 170 -40 170 -47 0 -20 -53 -147 -96 -230 -108 -209 -261 -356 -423 -405
-25 -8 -47 -14 -48 -14 -2 0 -3 167 -3 370 l0 370 33 0 c17 0 93 -7 167 -15z
m-979 -197 c58 -147 147 -299 237 -405 l44 -52 -44 15 c-143 49 -338 178 -466
306 l-82 84 66 38 c60 34 190 95 205 96 4 0 22 -37 40 -82z m1627 15 c62 -31
115 -59 117 -63 8 -13 -187 -194 -266 -248 -101 -68 -290 -162 -326 -162 -2 0
18 26 45 58 95 110 190 275 242 420 28 76 23 77 188 -5z"/>
<path d="M792 2053 l3 -38 118 -3 117 -3 0 -24 0 -25 1490 0 1490 0 0 -25 0
-25 -1490 0 -1490 0 0 -30 0 -30 1490 0 1490 0 0 -25 0 -25 -1490 0 -1490 0 0
-35 0 -35 1484 0 c1344 0 1484 -1 1490 -16 3 -9 6 -20 6 -25 0 -5 -592 -9
-1490 -9 l-1490 0 0 -30 0 -30 1490 0 1490 0 0 -25 0 -25 -1490 0 -1490 0 0
-30 0 -30 1490 0 1490 0 0 -25 0 -25 -1490 0 -1490 0 0 -35 0 -34 -117 -3
-118 -3 -3 -37 -3 -38 1710 0 1711 0 0 390 0 390 -1711 0 -1710 0 3 -37z"/>
<path d="M350 620 l0 -620 2210 0 2210 0 0 60 0 60 -149 0 -150 0 -3 28 -3 27
-1902 3 c-1633 2 -1903 4 -1903 16 0 8 -3 21 -6 30 -6 15 166 16 1905 16
l1911 0 0 25 0 25 -1904 0 c-1731 0 -1904 1 -1910 16 -3 9 -4 20 0 25 3 5 777
9 1910 9 l1904 0 0 35 0 35 -1910 0 -1910 0 0 25 0 25 1911 0 1910 0 -3 33 -3
32 -1907 3 -1908 2 0 25 0 25 1911 0 1910 0 -3 28 -3 27 -1907 3 -1908 2 0 25
0 25 1910 0 1910 0 0 30 0 30 -1910 0 -1910 0 0 25 0 25 1910 0 1910 0 0 30 0
30 -1910 0 -1910 0 0 25 0 25 1908 2 1907 3 0 30 0 30 -1907 3 -1908 2 0 25 0
25 1910 0 1910 0 0 45 0 45 150 0 150 0 0 60 0 60 -2210 0 -2210 0 0 -620z"/>
</g>
</svg>
