<?xml version="1.0" standalone="no"?>
<!DOCTYPE svg PUBLIC "-//W3C//DTD SVG 20010904//EN"
 "http://www.w3.org/TR/2001/REC-SVG-20010904/DTD/svg10.dtd">
<svg version="1.0" xmlns="http://www.w3.org/2000/svg"
 width="512.000000pt" height="512.000000pt" viewBox="0 0 512.000000 512.000000"
 preserveAspectRatio="xMidYMid meet">

<g transform="translate(0.000000,512.000000) scale(0.100000,-0.100000)"
fill="#000000" stroke="none">
<path d="M1899 4687 l-756 -432 753 -3 c415 -1 1093 -1 1507 0 l753 3 -746
433 c-411 237 -749 432 -751 431 -2 -1 -344 -195 -760 -432z"/>
<path d="M1270 4085 l0 -85 135 0 135 0 0 -700 0 -700 135 0 135 0 0 700 0
700 170 0 170 0 0 -700 0 -700 135 0 135 0 0 700 0 700 225 0 225 0 0 -700 0
-700 135 0 135 0 0 700 0 700 170 0 170 0 0 -700 0 -700 135 0 135 0 0 700 0
700 130 0 130 0 0 85 0 85 -1370 0 -1370 0 0 -85z"/>
<path d="M1110 3355 c-188 -21 -374 -61 -520 -113 -72 -25 -70 -21 -70 -162
l0 -128 -36 -7 c-52 -9 -142 -54 -159 -79 -13 -18 -15 -205 -15 -1393 l0
-1373 995 0 994 0 47 -30 c75 -47 138 -64 239 -64 101 0 164 17 239 64 l47 30
969 0 970 0 0 1371 0 1371 -28 28 c-16 15 -54 36 -85 46 l-57 18 0 137 c0 97
-4 139 -12 146 -58 46 -449 132 -655 145 l-63 4 0 -63 c0 -72 -7 -68 125 -78
97 -8 303 -47 402 -76 l73 -22 0 -1313 c0 -723 -4 -1314 -8 -1314 -5 0 -41 11
-80 24 -443 151 -1081 87 -1735 -173 -43 -17 -80 -31 -82 -31 -3 0 -5 235 -5
523 l0 522 40 -45 39 -45 1 378 0 377 -100 0 -100 0 0 -377 1 -378 39 45 40
45 0 -524 c0 -494 -1 -523 -17 -518 -10 3 -97 33 -193 67 -632 222 -1224 269
-1624 131 -33 -12 -63 -21 -68 -21 -4 0 -8 591 -8 1314 l0 1315 53 15 c177 52
382 85 575 93 l152 6 0 64 0 63 -102 -1 c-57 -1 -155 -7 -218 -14z"/>
<path d="M1300 2450 l0 -100 -50 0 -50 0 0 -100 0 -100 1460 0 1460 0 0 100 0
100 -55 0 -55 0 0 100 0 100 -1355 0 -1355 0 0 -100z"/>
</g>
</svg>
