<?xml version="1.0" standalone="no"?>
<!DOCTYPE svg PUBLIC "-//W3C//DTD SVG 20010904//EN"
 "http://www.w3.org/TR/2001/REC-SVG-20010904/DTD/svg10.dtd">
<svg version="1.0" xmlns="http://www.w3.org/2000/svg"
 width="512.000000pt" height="512.000000pt" viewBox="0 0 512.000000 512.000000"
 preserveAspectRatio="xMidYMid meet">

<g transform="translate(0.000000,512.000000) scale(0.100000,-0.100000)"
fill="#000000" stroke="none">
<path d="M29 4921 l-29 -29 0 -415 0 -415 26 -31 c25 -30 28 -31 110 -31 l84
0 0 -1012 c1 -1093 -2 -1036 54 -1058 18 -6 275 -10 752 -10 l724 0 -1 -447 0
-448 -380 -358 c-209 -198 -384 -370 -390 -383 -21 -58 38 -123 100 -109 16 3
169 141 391 350 l365 345 105 -107 c58 -60 209 -215 336 -345 158 -162 239
-239 259 -244 56 -14 113 45 99 103 -5 18 -133 157 -361 391 l-353 363 0 445
0 444 500 0 500 0 12 -25 c11 -25 7 -31 -81 -119 -96 -96 -109 -124 -83 -171
6 -11 98 -107 205 -212 240 -238 219 -232 354 -101 l94 92 42 -14 42 -15 6
-130 c3 -71 8 -137 13 -146 18 -40 48 -44 337 -44 l279 0 27 28 c27 27 28 31
31 158 l4 131 41 18 42 18 96 -94 c138 -135 115 -141 366 109 196 195 203 204
203 242 0 37 -7 47 -91 131 l-92 92 19 46 19 46 128 0 129 0 29 29 29 29 0
277 c0 281 -3 304 -39 332 -11 8 -60 12 -146 13 l-130 0 -19 46 -19 46 92 92
c96 96 109 124 83 171 -6 11 -98 107 -205 213 -240 237 -219 231 -354 100
l-94 -92 -42 14 -42 15 -5 132 c-5 129 -6 133 -33 160 l-27 28 -279 0 c-305 0
-321 -3 -341 -58 -5 -16 -10 -81 -10 -143 0 -102 -2 -114 -19 -124 -11 -5 -22
-10 -25 -10 -3 0 -6 173 -6 385 l0 385 66 0 c136 0 134 -6 134 467 0 231 -4
393 -11 415 -20 74 129 68 -1829 68 l-1762 0 -29 -29z m3451 -446 l0 -305
-1655 0 -1655 0 0 298 c0 164 3 302 7 305 3 4 748 7 1655 7 l1648 0 0 -305z
m-190 -795 c0 -176 -3 -320 -6 -320 -3 0 -17 9 -31 20 -57 45 -70 37 -281
-172 -106 -106 -198 -202 -204 -213 -26 -47 -13 -75 83 -171 l92 -92 -19 -46
-19 -46 -130 0 c-86 -1 -135 -5 -146 -13 -36 -27 -39 -52 -39 -296 l0 -241
-1100 0 -1100 0 0 955 0 955 1450 0 1450 0 0 -320z m730 -392 c0 -128 15 -166
75 -187 22 -8 75 -29 118 -48 56 -25 86 -33 105 -28 15 3 63 42 107 86 l80 79
120 -120 119 -119 -82 -84 c-93 -96 -99 -114 -58 -195 13 -26 31 -71 41 -101
10 -30 28 -65 41 -78 22 -21 31 -23 144 -23 l120 0 0 -170 0 -170 -120 0
c-113 0 -122 -2 -144 -23 -13 -13 -31 -48 -41 -78 -10 -30 -28 -75 -41 -101
-41 -81 -35 -99 58 -195 l82 -84 -119 -119 -120 -120 -80 79 c-44 44 -92 83
-107 86 -19 5 -49 -3 -105 -28 -43 -19 -96 -40 -118 -48 -60 -21 -75 -59 -75
-186 l0 -103 -165 0 -165 0 0 103 c0 127 -15 165 -75 186 -22 8 -75 29 -118
48 -56 25 -86 33 -105 28 -15 -3 -63 -42 -107 -86 l-80 -79 -120 120 -119 119
83 86 c79 81 83 86 78 122 -7 54 -84 235 -108 256 -18 14 -41 17 -140 17
l-119 0 0 170 0 170 120 0 c113 0 122 2 144 23 13 13 31 48 41 78 10 30 28 75
41 101 41 81 35 99 -58 195 l-82 84 119 119 120 120 80 -79 c44 -44 92 -83
107 -86 19 -5 49 3 105 28 43 19 96 40 118 48 60 21 75 59 75 187 l0 102 165
0 165 0 0 -102z"/>
<path d="M869 3794 c-21 -23 -24 -36 -27 -125 l-4 -99 -114 0 c-123 0 -174
-13 -193 -48 -18 -33 -13 -69 13 -99 24 -28 25 -28 160 -31 l136 -4 0 -494 c0
-545 0 -549 59 -573 25 -11 37 -11 62 0 59 24 59 28 59 573 l0 495 536 3 536
3 24 28 c42 49 28 108 -31 133 -28 11 -128 14 -549 14 l-514 0 -4 99 c-3 89
-6 102 -27 125 -18 19 -35 26 -61 26 -26 0 -43 -7 -61 -26z"/>
<path d="M3775 2780 c-240 -51 -405 -247 -405 -479 0 -265 215 -481 480 -483
224 -3 408 138 474 361 56 190 -42 433 -218 536 -97 57 -240 85 -331 65z m210
-199 c119 -57 179 -152 179 -281 -1 -123 -61 -222 -168 -278 -44 -23 -63 -27
-141 -27 -78 0 -97 4 -141 27 -60 32 -119 94 -147 157 -30 65 -29 178 1 246
53 116 156 183 287 184 58 1 81 -4 130 -28z"/>
</g>
</svg>
