<?xml version="1.0" standalone="no"?>
<!DOCTYPE svg PUBLIC "-//W3C//DTD SVG 20010904//EN"
 "http://www.w3.org/TR/2001/REC-SVG-20010904/DTD/svg10.dtd">
<svg version="1.0" xmlns="http://www.w3.org/2000/svg"
 width="512.000000pt" height="512.000000pt" viewBox="0 0 512.000000 512.000000"
 preserveAspectRatio="xMidYMid meet">

<g transform="translate(0.000000,512.000000) scale(0.100000,-0.100000)"
fill="#000000" stroke="none">
<path d="M480 4801 l0 -239 78 24 c42 13 89 27 105 30 l27 7 0 103 0 104 2110
0 2110 0 0 -1345 0 -1345 -1680 0 -1680 0 0 -44 c0 -23 -3 -71 -6 -105 l-7
-61 1792 0 1791 0 0 1555 0 1555 -2320 0 -2320 0 0 -239z"/>
<path d="M660 4494 c-109 -28 -199 -82 -285 -168 -92 -93 -134 -167 -167 -298
-16 -66 -20 -101 -15 -173 10 -165 66 -285 186 -405 124 -124 261 -181 433
-182 111 0 172 14 278 64 67 32 101 57 161 117 134 135 184 255 183 441 0 102
-3 125 -30 200 -17 47 -47 112 -68 143 -81 122 -227 225 -371 262 -74 19 -232
19 -305 -1z"/>
<path d="M3261 4484 c-17 -14 -35 -40 -39 -57 -11 -43 -130 -114 -161 -98 -40
22 -89 13 -129 -23 -33 -31 -37 -40 -37 -84 0 -40 5 -56 24 -76 14 -14 30 -26
36 -26 12 0 25 -65 25 -126 0 -24 -5 -34 -20 -39 -24 -8 -60 -57 -60 -82 0
-27 -137 -105 -162 -92 -27 14 -81 11 -108 -8 -30 -20 -42 -37 -55 -80 -7 -23
-29 -45 -75 -77 l-65 -45 -28 54 -27 55 -33 -16 c-17 -9 -239 -124 -493 -255
l-461 -239 -176 0 -175 0 -116 -135 c-64 -74 -120 -135 -124 -135 -4 1 -44 47
-90 103 -45 56 -95 117 -110 135 l-27 32 -249 -50 c-137 -27 -251 -52 -254
-55 -5 -5 -31 -799 -32 -987 l0 -128 104 0 104 0 7 -115 c6 -88 11 -115 21
-115 12 0 14 -108 14 -680 l0 -680 -22 0 c-13 0 -78 -12 -145 -27 l-123 -26 0
-114 0 -113 123 0 c72 0 165 8 230 19 104 17 107 17 107 -1 0 -17 10 -18 140
-18 l140 0 0 695 0 695 80 0 80 0 0 -695 0 -695 136 0 c123 0 136 2 141 18 4
18 8 18 111 0 64 -10 157 -18 230 -18 l122 0 0 113 0 114 -123 26 c-67 15
-132 27 -145 27 l-22 0 0 679 c0 670 0 679 20 684 17 4 20 14 20 54 0 26 11
262 25 523 14 261 25 491 25 512 l0 36 538 278 c295 153 538 278 540 280 2 1
-6 20 -17 43 -12 22 -21 44 -21 49 0 4 27 27 60 50 52 36 64 40 84 31 20 -10
24 -20 30 -85 l7 -73 -36 -33 c-95 -87 -14 -233 111 -198 40 11 45 10 99 -22
32 -18 61 -40 65 -48 4 -8 14 -31 23 -51 42 -99 196 -77 213 32 6 35 12 42 70
73 59 33 65 34 91 21 33 -17 62 -19 98 -5 23 9 36 4 94 -29 58 -34 69 -46 79
-80 22 -70 90 -105 156 -77 38 16 76 67 76 103 0 16 16 30 64 57 62 35 64 35
95 20 62 -31 150 13 163 80 7 34 -17 98 -42 115 -17 12 -20 24 -20 97 0 50 4
84 10 84 6 0 19 15 30 33 66 107 -40 225 -151 168 l-40 -21 -57 33 c-52 30
-57 37 -64 77 -5 28 -18 55 -38 75 -28 29 -30 36 -30 104 0 67 2 75 29 101 36
37 45 80 26 128 -27 67 -107 92 -170 54 -29 -18 -30 -18 -92 17 -60 34 -63 38
-63 75 0 30 -7 45 -34 72 -45 45 -108 48 -155 8z m109 -54 c11 -11 20 -27 20
-35 0 -18 -35 -55 -53 -55 -24 0 -57 31 -57 55 0 24 33 55 57 55 7 0 22 -9 33
-20z m-108 -125 c35 -29 95 -34 132 -10 22 14 27 13 89 -22 52 -30 67 -43 67
-61 0 -39 29 -81 70 -102 l40 -20 0 -63 c0 -61 0 -62 -38 -82 -24 -13 -44 -35
-58 -64 -17 -34 -34 -51 -82 -78 -57 -32 -62 -33 -105 -22 -41 10 -50 9 -84
-11 l-39 -22 -62 37 c-56 33 -62 39 -62 69 0 32 -29 81 -57 99 -9 5 -13 33
-13 87 0 69 3 81 20 90 29 15 52 66 48 106 -2 32 1 37 47 64 28 16 52 30 54
30 2 0 16 -11 33 -25z m-218 -38 c38 -28 13 -97 -35 -97 -47 0 -65 67 -27 94
27 19 39 20 62 3z m658 -14 c22 -20 23 -56 2 -77 -32 -33 -86 -9 -86 39 0 48
48 70 84 38z m-648 -369 c21 -20 20 -43 -1 -66 -33 -37 -93 -15 -93 36 0 22
28 46 55 46 13 0 31 -7 39 -16z m654 -6 c7 -7 12 -24 12 -38 0 -14 -5 -31 -12
-38 -7 -7 -24 -12 -38 -12 -14 0 -31 5 -38 12 -7 7 -12 24 -12 38 0 14 5 31
12 38 7 7 24 12 38 12 14 0 31 -5 38 -12z m-761 -124 c31 -21 45 -24 76 -20
21 4 46 12 56 18 15 9 30 5 85 -26 59 -33 66 -40 66 -68 0 -22 11 -41 40 -70
39 -39 40 -42 40 -109 0 -58 -3 -70 -20 -79 -29 -16 -53 -57 -60 -102 -4 -36
-10 -43 -61 -71 l-56 -31 -28 22 c-36 29 -83 28 -126 -2 l-34 -23 -57 30 c-55
30 -56 31 -55 73 0 50 -21 87 -63 109 -29 15 -30 18 -30 83 0 64 1 68 30 84
37 21 64 79 56 122 -5 29 -2 33 42 58 26 15 50 27 54 27 4 1 24 -11 45 -25z
m659 -9 c43 -29 60 -31 113 -9 40 16 40 16 105 -21 54 -30 66 -41 66 -61 0
-40 26 -80 65 -98 l35 -17 0 -69 c0 -55 -3 -70 -15 -70 -8 0 -29 -13 -47 -29
-24 -22 -33 -39 -37 -75 -6 -45 -8 -49 -63 -79 -57 -31 -57 -31 -78 -12 -32
29 -110 27 -143 -3 l-24 -23 -62 36 c-58 34 -62 39 -56 65 8 35 -16 95 -44
110 -19 9 -21 20 -21 91 0 74 2 83 25 101 27 21 47 80 39 113 -4 17 4 26 43
48 26 14 51 27 55 27 4 0 24 -11 44 -25z m-888 -31 c32 -22 30 -71 -3 -86 -60
-27 -107 49 -53 86 12 9 25 16 28 16 3 0 16 -7 28 -16z m671 -8 c20 -23 9 -69
-18 -83 -29 -14 -55 -4 -71 28 -26 47 55 96 89 55z m656 -16 c22 -25 13 -66
-18 -76 -29 -10 -49 -6 -64 14 -42 54 36 113 82 62z m-1307 -352 c7 -7 12 -24
12 -38 0 -64 -81 -71 -103 -9 -14 42 59 79 91 47z m643 2 c29 -16 25 -65 -6
-86 -23 -15 -27 -15 -50 0 -17 11 -25 26 -25 44 0 47 36 66 81 42z m663 -16
c33 -32 9 -86 -39 -86 -48 0 -70 48 -38 84 20 22 56 23 77 2z m-968 -186 c8
-27 -22 -68 -51 -68 -54 0 -74 73 -26 96 29 15 68 1 77 -28z m652 -22 c4 -35
-14 -56 -48 -56 -35 0 -52 21 -48 57 7 61 89 60 96 -1z"/>
<path d="M3877 2623 c-4 -3 -7 -73 -7 -155 l0 -148 415 0 415 0 0 155 0 155
-408 0 c-225 0 -412 -3 -415 -7z"/>
</g>
</svg>
