<?xml version="1.0" encoding="utf-8"?>
<!-- Generator: Adobe Illustrator 16.0.0, SVG Export Plug-In . SVG Version: 6.00 Build 0)  -->
<!DOCTYPE svg PUBLIC "-//W3C//DTD SVG 1.1//EN" "http://www.w3.org/Graphics/SVG/1.1/DTD/svg11.dtd">
<svg version="1.1" id="Layer_1" xmlns="http://www.w3.org/2000/svg" xmlns:xlink="http://www.w3.org/1999/xlink" x="0px" y="0px"
	 width="24px" height="24px" viewBox="0 0 24 24" enable-background="new 0 0 24 24" xml:space="preserve">
<g>
	<g>
		<path fill="#010101" d="M9.645,13.881c0,0-0.336,0.863-0.334,0.867l0.533,0.758h1.178l0.535-0.758
			c-0.004-0.014-0.334-0.867-0.334-0.867C11.184,13.887,9.684,13.887,9.645,13.881z M6.611,8.844c0.688,2.01,1.98,3.538,3.822,3.538
			c1.775,0,3.088-1.506,3.797-3.513c1.434-1.445,1.096-2.525,0.766-3.041C15.773,2.102,13.395,0,10.299,0
			C4.75,0,5.717,6.08,5.717,6.08c0.006,0.001,0.014,0.001,0.02,0.002C5.482,6.654,5.408,7.616,6.611,8.844z M8.928,4.33L8.523,5.839
			c1.98-0.604,2.246-0.936,2.559-1.163c0.324-0.235,0.598-0.474,0.82-0.691c0.102,0.184,0.23,0.352,0.379,0.504
			c0.146,0.154,0.363-1.397,0.363-1.397s0.547,0.942,0.623,1.247c0.055,0.216,0.4,1.09,0.586,1.17c-0.068,2.885-1.363,5.9-3.42,5.9
			c-1.914,0-3.168-2.615-3.389-5.305C7.57,6.072,8.928,4.33,8.928,4.33z M17.331,17.58c-0.743,0-1.348-0.604-1.348-1.348v-3.746
			l-2.206-0.813l-0.369,0.9l0.779,0.287l-2.842,9.375l-0.357-6.295H9.881l-0.354,6.18l-2.811-9.273l0.748-0.273l-0.373-0.899
			l-2.758,1.015l-0.035,0.015c-0.035,0.017-2.664,1.267-3.814,4.295C0.25,17.616,0.078,18.307,0,19.076
			C2.475,22.08,6.227,23.998,10.426,24h0.02c0.227,0,0.451-0.006,0.676-0.018h0.014c3.918-0.201,7.395-2.068,9.734-4.908
			c-0.055-0.541-0.169-1.029-0.307-1.494H17.331z M16.707,20.161c-1.154,0.463-2.34,0.545-3.023,0.545
			c-0.23,0-0.402-0.011-0.5-0.017v-0.58c0.031,0.002,1.994,0.232,3.523-0.555V20.161z M23.652,11.802h-0.465v-1.545
			c0-0.771-0.293-1.477-0.774-1.991C21.932,7.75,21.248,7.419,20.49,7.42c-0.755-0.001-1.44,0.33-1.921,0.846
			c-0.483,0.515-0.776,1.221-0.776,1.991v1.545h-0.462c-0.193,0-0.348,0.154-0.348,0.347v4.084c0,0.191,0.154,0.348,0.348,0.348
			h6.321c0.19,0,0.348-0.156,0.348-0.348v-4.084C24,11.956,23.843,11.802,23.652,11.802z M20.779,14.073v0.76
			c0,0.121-0.099,0.22-0.219,0.22h-0.14c-0.121,0-0.218-0.099-0.218-0.22v-0.76c-0.159-0.098-0.266-0.27-0.266-0.47
			c0-0.307,0.248-0.554,0.553-0.554c0.306,0,0.556,0.247,0.556,0.554C21.046,13.804,20.939,13.976,20.779,14.073z M21.906,11.802
			h-2.832v-1.545c0-0.444,0.171-0.838,0.43-1.118c0.264-0.277,0.606-0.439,0.986-0.439c0.381,0,0.723,0.162,0.986,0.439
			c0.262,0.28,0.43,0.674,0.43,1.118V11.802z"/>
	</g>
</g>
</svg>
