<?xml version="1.0" ?><svg id="Layer_1" style="enable-background:new 0 0 65 65;" version="1.1" viewBox="0 0 65 65" xml:space="preserve" xmlns="http://www.w3.org/2000/svg" xmlns:xlink="http://www.w3.org/1999/xlink"><style type="text/css">
</style><g><path class="st0" d="M63.5,2.5c-0.6,0-1,0.4-1,1v11c0,0.6,0.4,1,1,1s1-0.4,1-1v-11C64.5,2.9,64.1,2.5,63.5,2.5z"/><path class="st0" d="M63.5,17.5c-0.6,0-1,0.4-1,1v1c0,0.6,0.4,1,1,1s1-0.4,1-1v-1C64.5,17.9,64.1,17.5,63.5,17.5z"/><path class="st0" d="M16.5,62.5h-9c-0.6,0-1,0.4-1,1s0.4,1,1,1h9c0.6,0,1-0.4,1-1S17.1,62.5,16.5,62.5z"/><path class="st0" d="M3.5,62.5h-2c-0.6,0-1,0.4-1,1s0.4,1,1,1h2c0.6,0,1-0.4,1-1S4.1,62.5,3.5,62.5z"/><path class="st0" d="M7.5,59.5v-1h1c0.6,0,1-0.4,1-1s-0.4-1-1-1h-1v-1c0-0.6-0.4-1-1-1s-1,0.4-1,1v1h-1c-0.6,0-1,0.4-1,1s0.4,1,1,1   h1v1c0,0.6,0.4,1,1,1S7.5,60.1,7.5,59.5z"/><path class="st0" d="M52.5,4.5h1v1c0,0.6,0.4,1,1,1s1-0.4,1-1v-1h1c0.6,0,1-0.4,1-1s-0.4-1-1-1h-1v-1c0-0.6-0.4-1-1-1s-1,0.4-1,1v1   h-1c-0.6,0-1,0.4-1,1S51.9,4.5,52.5,4.5z"/><path class="st0" d="M31.8,27.4c-0.4,0.1-0.7,0.3-0.9,0.6c-0.2,0.3-0.3,0.6-0.3,1c0,0.7,0.4,1.3,1.2,1.6V27.4z"/><path class="st0" d="M34.8,35.5c0-0.9-0.5-1.5-1.6-1.8v3.6c0.5-0.1,0.9-0.3,1.2-0.6C34.7,36.4,34.8,36,34.8,35.5z"/><path class="st0" d="M32.5,43.5c6.1,0,11-4.9,11-11c0-6.1-4.9-11-11-11c-6.1,0-11,4.9-11,11C21.5,38.6,26.4,43.5,32.5,43.5z    M28.2,29.2c0-1.1,0.3-1.9,1-2.6c0.7-0.7,1.5-1.1,2.6-1.2v-0.9h1.4v0.9c1,0.1,1.8,0.4,2.4,1c0.6,0.5,1,1.3,1.2,2.2L34.4,29   c-0.1-0.7-0.5-1.2-1.2-1.5v3.6c1.5,0.4,2.5,0.9,3,1.4c0.6,0.7,0.9,1.5,0.9,2.6c0,1.2-0.4,2.1-1.1,2.9c-0.7,0.7-1.7,1.2-2.9,1.4v1.1   h-1.4v-1.1c-2.3-0.3-3.6-1.6-4-4l2.5-0.3c0.1,0.5,0.3,0.9,0.6,1.3c0.3,0.4,0.6,0.6,0.9,0.8v-3.9C29.4,32.6,28.2,31.3,28.2,29.2z"/><path class="st0" d="M32.5,48.5c8.8,0,16-7.2,16-16s-7.2-16-16-16c-8.8,0-16,7.2-16,16S23.7,48.5,32.5,48.5z M32.5,19.5   c7.2,0,13,5.8,13,13s-5.8,13-13,13s-13-5.8-13-13S25.3,19.5,32.5,19.5z"/><path class="st0" d="M33.5,54.6v-4.1c-0.3,0-0.7,0-1,0c-0.3,0-0.7,0-1,0v4.1c-2.3,0.5-4,2.5-4,4.9c0,2.8,2.3,5,5,5c2.8,0,5-2.2,5-5   C37.5,57.1,35.8,55.1,33.5,54.6z M32.5,61.5c-1.1,0-2-0.9-2-2s0.9-2,2-2s2,0.9,2,2S33.6,61.5,32.5,61.5z"/><path class="st0" d="M31.5,10.4v4.1c0.3,0,0.7,0,1,0c0.3,0,0.7,0,1,0v-4.1c2.3-0.5,4-2.5,4-4.9c0-2.8-2.2-5-5-5c-2.8,0-5,2.2-5,5   C27.5,7.9,29.2,9.9,31.5,10.4z M32.5,3.5c1.1,0,2,0.9,2,2s-0.9,2-2,2s-2-0.9-2-2S31.4,3.5,32.5,3.5z"/><path class="st0" d="M17.7,13.9c0.4,0.1,0.9,0.2,1.3,0.2c0.5,0,1.1-0.1,1.6-0.3l2.1,3.6c0.6-0.4,1.1-0.7,1.7-1l-2.1-3.6   c1.1-1,1.7-2.3,1.7-3.7c0-0.8-0.2-1.7-0.7-2.5c-0.7-1.2-1.7-2-3-2.3c-1.3-0.4-2.6-0.2-3.8,0.5c-1.1,0.7-2,1.7-2.3,3   c-0.3,1.3-0.2,2.6,0.5,3.8C15.3,12.8,16.4,13.6,17.7,13.9z M17.1,8.6c0.1-0.5,0.5-0.9,0.9-1.2c1-0.5,2.2-0.2,2.7,0.7   c0.3,0.5,0.3,1,0.2,1.5c-0.1,0.5-0.5,0.9-0.9,1.2c-0.3,0.2-0.7,0.3-1,0.3c-0.7,0-1.4-0.4-1.7-1C17,9.7,16.9,9.1,17.1,8.6z"/><path class="st0" d="M47.3,51c-1-0.3-2-0.2-2.9,0.1l-2.1-3.6c-0.6,0.4-1.1,0.7-1.7,1l2.1,3.6c-0.7,0.6-1.3,1.5-1.5,2.5   c-0.3,1.3-0.2,2.6,0.5,3.8c0.7,1.2,1.8,2,3,2.3c0.4,0.1,0.9,0.2,1.3,0.2c0.9,0,1.7-0.2,2.5-0.7c1.2-0.7,2-1.7,2.3-3   c0.3-1.3,0.2-2.6-0.5-3.8C49.7,52.2,48.6,51.4,47.3,51z M47,57.6c-0.3,0.2-0.6,0.3-1,0.3c-0.2,0-0.3,0-0.5-0.1   c-0.5-0.1-0.9-0.5-1.2-0.9c-0.5-1-0.2-2.2,0.7-2.7l0,0c1-0.5,2.2-0.2,2.7,0.7S48,57.1,47,57.6z"/><path class="st0" d="M6.6,23.3C7.4,23.8,8.3,24,9.1,24c1.4,0,2.8-0.6,3.7-1.7l3.6,2.1c0.3-0.6,0.6-1.2,1-1.7l-3.6-2.1   c0.7-2.2-0.2-4.7-2.2-5.9c-2.4-1.4-5.5-0.6-6.8,1.8c-0.7,1.2-0.8,2.5-0.5,3.8C4.6,21.6,5.5,22.7,6.6,23.3z M7.4,18   c0.6-1,1.8-1.3,2.7-0.7c0.5,0.3,0.8,0.7,0.9,1.2c0.1,0.5,0.1,1.1-0.2,1.5c-0.4,0.6-1,1-1.7,1c-0.3,0-0.7-0.1-1-0.3l0,0   C7.2,20.2,6.8,19,7.4,18z"/><path class="st0" d="M58.4,41.7c-1.2-0.7-2.5-0.9-3.8-0.5c-1,0.3-1.8,0.8-2.4,1.5l-3.6-2.1c-0.3,0.6-0.6,1.2-1,1.7l3.6,2.1   c-0.3,0.9-0.3,1.9-0.1,2.9c0.3,1.3,1.2,2.4,2.3,3c0.8,0.5,1.6,0.7,2.5,0.7c1.7,0,3.4-0.9,4.3-2.5c0.7-1.2,0.9-2.5,0.5-3.8   C60.4,43.4,59.5,42.3,58.4,41.7z M57.6,47c-0.4,0.6-1,1-1.7,1c-0.3,0-0.7-0.1-1-0.3c-1-0.6-1.3-1.8-0.7-2.7c0.6-1,1.8-1.3,2.7-0.7   c0.5,0.3,0.8,0.7,0.9,1.2C58,46,57.9,46.5,57.6,47z"/><path class="st0" d="M5.5,37.5c2.4,0,4.4-1.7,4.9-4h4.1c0-0.3,0-0.7,0-1c0-0.3,0-0.7,0-1h-4.1c-0.5-2.3-2.5-4-4.9-4   c-2.8,0-5,2.2-5,5S2.7,37.5,5.5,37.5z M5.5,30.5c1.1,0,2,0.9,2,2s-0.9,2-2,2s-2-0.9-2-2S4.4,30.5,5.5,30.5z"/><path class="st0" d="M59.5,27.5c-2.4,0-4.4,1.7-4.9,4h-4.1c0,0.3,0,0.7,0,1c0,0.3,0,0.7,0,1h4.1c0.5,2.3,2.5,4,4.9,4   c2.8,0,5-2.2,5-5S62.3,27.5,59.5,27.5z M59.5,34.5c-1.1,0-2-0.9-2-2s0.9-2,2-2s2,0.9,2,2S60.6,34.5,59.5,34.5z"/><path class="st0" d="M16.4,40.6l-3.6,2.1c-1.5-1.7-4.1-2.2-6.2-1c-2.4,1.4-3.2,4.4-1.8,6.8C5.7,50.1,7.4,51,9.1,51   c0.8,0,1.7-0.2,2.5-0.7c2.1-1.2,3-3.7,2.2-5.9l3.6-2.1C17.1,41.8,16.7,41.2,16.4,40.6z M10.1,47.7c-0.3,0.2-0.6,0.3-1,0.3   c-0.2,0-0.3,0-0.5-0.1c-0.5-0.1-0.9-0.5-1.2-0.9c-0.6-1-0.2-2.2,0.7-2.7c1-0.6,2.2-0.2,2.7,0.7C11.4,46,11.1,47.2,10.1,47.7z"/><path class="st0" d="M51.1,20.6l-3.6,2.1c0.4,0.6,0.7,1.1,1,1.7l3.6-2.1c1,1.1,2.3,1.7,3.7,1.7c0.8,0,1.7-0.2,2.5-0.7   c1.2-0.7,2-1.7,2.3-3c0.4-1.3,0.2-2.6-0.5-3.8c-0.7-1.2-1.7-2-3-2.3c-1.3-0.4-2.6-0.2-3.8,0.5c-1.2,0.7-2,1.8-2.3,3   C50.8,18.7,50.8,19.7,51.1,20.6z M54.9,17.3c1-0.5,2.2-0.2,2.7,0.7c0.6,1,0.2,2.2-0.7,2.7c-0.3,0.2-0.7,0.3-1,0.3   c-0.7,0-1.4-0.4-1.7-1C53.6,19,53.9,17.8,54.9,17.3z"/><path class="st0" d="M22.7,47.6l-2.1,3.6c-0.9-0.3-1.9-0.3-2.9-0.1c-1.3,0.3-2.4,1.2-3,2.3c-0.7,1.2-0.8,2.5-0.5,3.8   c0.3,1.3,1.2,2.4,2.3,3c0.8,0.5,1.6,0.7,2.5,0.7c0.4,0,0.9-0.1,1.3-0.2c1.3-0.3,2.4-1.2,3-2.3c0.7-1.1,0.8-2.5,0.5-3.8   c-0.3-1-0.8-1.8-1.5-2.5l2.1-3.6C23.8,48.3,23.2,47.9,22.7,47.6z M20.7,56.9c-0.4,0.6-1,1-1.7,1c-0.3,0-0.7-0.1-1-0.3   c-1-0.6-1.3-1.8-0.7-2.7c0.6-1,1.8-1.3,2.7-0.7l0,0C21,54.7,21.3,55.9,20.7,56.9z"/><path class="st0" d="M42.3,17.4l2.1-3.6c0.5,0.2,1,0.3,1.6,0.3c0.4,0,0.9-0.1,1.3-0.2c1.3-0.3,2.4-1.2,3-2.3   c0.7-1.2,0.8-2.5,0.5-3.8c-0.3-1.3-1.2-2.4-2.3-3c-1.1-0.7-2.5-0.9-3.8-0.5c-1.3,0.3-2.4,1.2-3,2.3c-1.2,2.1-0.7,4.7,1,6.2   l-2.1,3.6C41.2,16.7,41.8,17.1,42.3,17.4z M44.3,8.1c0.6-1,1.8-1.3,2.7-0.7c0.5,0.3,0.8,0.7,0.9,1.2c0.1,0.5,0.1,1.1-0.2,1.5   c-0.4,0.6-1,1-1.7,1c-0.3,0-0.7-0.1-1-0.3C44,10.3,43.7,9.1,44.3,8.1z"/></g></svg>