<?xml version="1.0" standalone="no"?>
<!DOCTYPE svg PUBLIC "-//W3C//DTD SVG 20010904//EN"
 "http://www.w3.org/TR/2001/REC-SVG-20010904/DTD/svg10.dtd">
<svg version="1.0" xmlns="http://www.w3.org/2000/svg"
 width="800.000000pt" height="800.000000pt" viewBox="0 0 800.000000 800.000000"
 preserveAspectRatio="xMidYMid meet">

<g transform="translate(0.000000,800.000000) scale(0.100000,-0.100000)"
fill="#000000" stroke="none">
<path d="M3786 7320 c-228 -36 -439 -135 -584 -273 -158 -151 -240 -325 -276
-584 -9 -59 -20 -132 -26 -162 -5 -29 -10 -74 -10 -98 0 -36 -6 -49 -34 -77
-47 -47 -60 -110 -53 -250 8 -178 71 -338 153 -391 21 -13 40 -39 55 -75 94
-229 242 -455 395 -601 374 -357 795 -353 1164 10 145 143 282 346 366 544 31
74 51 106 81 131 49 43 86 110 115 211 18 65 23 105 23 210 0 115 -2 135 -22
172 -12 22 -27 43 -33 45 -7 2 -12 58 -15 153 -4 177 -23 289 -68 417 -111
310 -337 508 -679 594 -90 23 -128 26 -298 29 -107 2 -222 0 -254 -5z m-146
-915 c191 -51 385 -56 546 -15 144 37 243 24 392 -51 98 -51 105 -49 77 18
-20 48 -19 54 9 42 50 -23 141 -187 186 -335 20 -67 22 -70 48 -66 37 5 59
-22 72 -89 14 -71 -3 -184 -40 -264 -31 -69 -53 -92 -94 -97 -25 -3 -32 -12
-60 -83 -167 -410 -436 -675 -731 -716 -184 -25 -357 46 -535 221 -138 136
-247 307 -325 508 -23 60 -32 72 -47 69 -11 -3 -31 5 -49 20 -60 51 -89 140
-89 276 0 123 15 160 63 155 31 -3 32 -2 44 55 28 133 126 278 223 328 48 24
134 47 187 48 17 1 73 -10 123 -24z"/>
<path d="M3160 4558 c-19 -4 -109 -12 -200 -18 -398 -26 -584 -92 -757 -268
-79 -80 -179 -230 -239 -358 -47 -101 -124 -319 -124 -353 0 -12 -17 -29 -43
-44 -90 -53 -160 -155 -176 -259 -9 -56 -10 -51 163 -1053 35 -203 87 -509
116 -680 28 -170 58 -338 67 -373 20 -81 82 -168 151 -210 108 -66 -22 -62
1882 -62 1904 0 1774 -4 1882 62 69 42 131 129 151 210 9 35 39 203 67 373 29
171 81 477 116 680 172 998 172 997 164 1052 -17 102 -79 196 -169 254 -41 27
-46 34 -64 101 -22 85 -92 269 -135 355 -50 98 -149 239 -217 308 -116 118
-243 185 -423 224 -112 24 -144 28 -337 41 -88 6 -175 14 -194 18 -34 7 -34 7
-67 -56 -19 -35 -57 -96 -86 -135 -126 -171 -477 -573 -488 -560 -4 4 -28 90
-54 190 l-46 181 29 30 c31 31 61 114 61 169 l0 33 -191 0 -192 0 6 -58 c5
-63 25 -111 62 -152 l22 -25 -46 -182 c-25 -100 -49 -184 -52 -188 -4 -3 -74
69 -156 162 -243 275 -381 453 -425 549 -23 49 -24 50 -58 42z m2960 -1112
c97 -52 148 -119 157 -208 3 -40 -35 -280 -161 -1014 -91 -529 -166 -970 -166
-981 0 -56 -33 -126 -83 -178 -90 -93 75 -85 -1867 -85 -1909 0 -1772 -5
-1855 71 -55 51 -80 104 -95 199 -6 41 -83 492 -170 1002 -88 510 -160 944
-160 965 2 109 91 217 203 243 18 5 961 7 2097 7 1996 -2 2066 -3 2100 -21z"/>
<path d="M3934 2401 c-61 -28 -89 -73 -89 -143 0 -64 18 -97 76 -136 28 -20
43 -23 87 -20 56 5 91 25 126 72 31 41 29 130 -3 175 -26 36 -90 71 -131 71
-14 0 -43 -9 -66 -19z"/>
<path d="M2126 799 c-33 -26 -36 -79 -6 -109 20 -20 33 -20 1880 -20 1847 0
1860 0 1880 20 30 30 27 83 -6 109 l-27 21 -1847 0 -1847 0 -27 -21z"/>
</g>
</svg>
