<?xml version="1.0" standalone="no"?>
<!DOCTYPE svg PUBLIC "-//W3C//DTD SVG 20010904//EN"
 "http://www.w3.org/TR/2001/REC-SVG-20010904/DTD/svg10.dtd">
<svg version="1.0" xmlns="http://www.w3.org/2000/svg"
 width="512.000000pt" height="512.000000pt" viewBox="0 0 512.000000 512.000000"
 preserveAspectRatio="xMidYMid meet">

<g transform="translate(0.000000,512.000000) scale(0.100000,-0.100000)"
fill="#000000" stroke="none">
<path d="M140 4908 c-51 -14 -95 -52 -119 -101 l-21 -43 0 -1898 c0 -1845 1
-1898 19 -1934 22 -43 52 -72 101 -98 33 -18 78 -19 928 -22 l892 -3 0 -94 0
-95 -221 0 c-284 0 -337 -13 -417 -104 -67 -77 -82 -142 -82 -363 l0 -153
1340 0 1340 0 0 153 c0 221 -15 286 -82 363 -80 91 -133 104 -417 104 l-221 0
0 95 0 94 893 3 c891 3 892 3 932 25 46 24 76 55 99 100 15 30 16 196 14 1942
l-3 1909 -30 43 c-16 23 -48 52 -70 63 l-40 21 -2400 2 c-1573 1 -2412 -2
-2435 -9z m4768 -2040 l2 -1838 -2350 0 -2350 0 0 1833 c0 1009 3 1837 7 1840
3 4 1060 6 2347 5 l2341 -3 3 -1837z m-1948 -2153 l0 -95 -400 0 -400 0 0 95
0 95 400 0 400 0 0 -95z m694 -346 c22 -26 26 -40 26 -95 l0 -64 -1120 0
-1120 0 0 64 c0 55 4 69 26 95 l26 31 1068 0 1068 0 26 -31z"/>
<path d="M545 4498 c-49 -18 -83 -47 -112 -96 l-28 -47 0 -1275 c0 -1021 3
-1282 13 -1312 20 -56 89 -113 151 -127 74 -16 3908 -16 3982 0 62 14 131 71
151 127 10 30 13 291 13 1312 l0 1275 -28 47 c-29 51 -63 78 -116 96 -46 16
-3982 16 -4026 0z m3955 -1423 l0 -1225 -1940 0 -1940 0 0 1225 0 1225 1940 0
1940 0 0 -1225z"/>
<path d="M2202 4187 c-12 -7 -29 -23 -38 -36 -9 -12 -103 -282 -208 -599
l-193 -577 -526 -3 -527 -2 0 -105 0 -105 590 2 590 3 25 25 c19 19 60 130
169 455 79 237 146 423 149 415 3 -8 74 -341 157 -740 83 -399 158 -748 165
-776 17 -58 39 -83 88 -94 68 -15 77 -5 340 364 l248 346 589 0 590 0 0 105 0
105 -638 0 c-545 0 -641 -2 -659 -15 -11 -8 -87 -108 -169 -222 -81 -115 -166
-232 -188 -262 l-39 -55 -182 860 c-100 472 -185 866 -189 875 -18 41 -98 61
-144 36z"/>
<path d="M4320 1525 c-78 -35 -123 -107 -123 -196 -1 -206 268 -283 383 -111
36 55 40 151 8 212 -35 65 -94 101 -171 106 -43 3 -73 -1 -97 -11z"/>
</g>
</svg>
