<?xml version="1.0" standalone="no"?>
<!DOCTYPE svg PUBLIC "-//W3C//DTD SVG 20010904//EN"
 "http://www.w3.org/TR/2001/REC-SVG-20010904/DTD/svg10.dtd">
<svg version="1.0" xmlns="http://www.w3.org/2000/svg"
 width="512.000000pt" height="512.000000pt" viewBox="0 0 512.000000 512.000000"
 preserveAspectRatio="xMidYMid meet">

<g transform="translate(0.000000,512.000000) scale(0.100000,-0.100000)"
fill="#000000" stroke="none">
<path d="M2494 5106 c-17 -8 -41 -27 -52 -44 -12 -16 -83 -153 -157 -303 -104
-210 -141 -276 -158 -281 -12 -4 -152 -25 -311 -48 -159 -23 -301 -46 -315
-51 -69 -26 -108 -100 -91 -174 7 -35 40 -71 246 -273 l237 -233 -52 -307
c-28 -169 -51 -323 -51 -342 0 -77 84 -148 161 -137 22 3 158 68 321 153 155
82 287 148 292 146 4 -2 131 -68 282 -147 150 -79 284 -147 298 -151 42 -10
94 5 131 37 63 56 63 66 0 424 l-56 320 235 230 c129 127 240 243 245 258 16
40 14 84 -5 123 -32 68 -47 73 -401 125 -179 26 -327 49 -328 51 -2 2 -64 129
-139 283 -75 153 -147 290 -159 303 -44 49 -113 64 -173 38z m162 -676 c121
-239 100 -224 374 -264 107 -15 197 -30 199 -32 3 -3 -65 -73 -151 -157 -134
-130 -158 -158 -164 -190 -4 -25 5 -107 28 -242 19 -113 33 -205 31 -205 -3 0
-88 43 -190 97 -154 79 -193 96 -229 95 -34 0 -80 -19 -225 -96 -100 -53 -184
-94 -187 -92 -2 3 10 85 27 184 33 191 37 251 20 285 -6 12 -78 90 -161 173
l-149 150 198 29 c109 15 212 34 230 41 45 18 78 68 168 257 43 92 80 166 81
164 1 -1 46 -90 100 -197z"/>
<path d="M2394 2715 c-233 -50 -433 -210 -534 -426 -37 -81 -70 -207 -70 -272
l0 -50 -187 184 c-104 102 -212 200 -241 218 -142 90 -332 95 -480 13 -65 -36
-154 -127 -187 -191 -54 -107 -66 -247 -32 -356 36 -114 53 -134 583 -665
l513 -515 3 -270 c3 -249 5 -273 23 -304 11 -19 33 -43 48 -55 28 -21 35 -21
710 -24 771 -3 736 -6 783 73 24 41 24 44 24 311 l0 269 519 520 c552 553 555
557 591 687 18 68 9 208 -19 280 -45 117 -152 224 -268 269 -73 28 -213 37
-281 19 -113 -31 -159 -65 -363 -267 l-196 -194 -7 63 c-11 101 -34 177 -83
278 -40 81 -61 109 -143 191 -85 86 -107 102 -200 147 -64 31 -135 57 -182 66
-93 19 -240 19 -324 1z m287 -301 c155 -46 267 -152 321 -302 27 -76 29 -216
4 -290 -55 -162 -177 -277 -337 -316 -76 -19 -125 -20 -200 -6 -167 32 -315
166 -363 329 -23 77 -21 204 4 276 52 150 162 259 310 306 70 23 190 24 261 3z
m-1504 -284 c15 -6 233 -215 483 -465 250 -250 468 -459 483 -464 38 -15 785
-15 824 0 15 5 231 212 478 458 248 247 464 456 482 465 18 9 54 16 81 16 124
0 201 -135 143 -248 -11 -20 -257 -273 -546 -562 -301 -299 -533 -539 -541
-557 -11 -25 -14 -86 -14 -253 l0 -220 -495 0 -495 0 0 233 c0 199 -2 236 -16
257 -9 14 -259 268 -555 565 -473 475 -538 544 -544 578 -25 138 101 245 232
197z"/>
</g>
</svg>
