<?xml version="1.0" standalone="no"?>
<!DOCTYPE svg PUBLIC "-//W3C//DTD SVG 20010904//EN"
 "http://www.w3.org/TR/2001/REC-SVG-20010904/DTD/svg10.dtd">
<svg version="1.0" xmlns="http://www.w3.org/2000/svg"
 width="512.000000pt" height="512.000000pt" viewBox="0 0 512.000000 512.000000"
 preserveAspectRatio="xMidYMid meet">

<g transform="translate(0.000000,512.000000) scale(0.100000,-0.100000)"
fill="#000000" stroke="none">
<path d="M2428 4611 c-207 -67 -342 -279 -309 -489 34 -221 221 -382 441 -382
327 0 540 338 401 636 -92 198 -327 301 -533 235z"/>
<path d="M1145 4404 c-112 -27 -202 -80 -296 -173 -71 -71 -93 -101 -127 -171
-52 -111 -67 -174 -66 -290 1 -75 207 -2026 230 -2172 l6 -38 203 0 204 0 4
553 c4 575 3 567 49 687 47 121 144 240 257 314 74 48 129 72 276 117 119 37
166 35 206 -9 23 -25 103 -220 410 -999 29 -73 55 -133 59 -133 4 0 30 60 59
133 307 779 387 974 410 999 40 44 87 46 206 9 147 -45 202 -69 276 -117 113
-74 210 -193 257 -314 46 -120 45 -112 49 -687 l4 -553 204 0 203 0 6 38 c23
146 229 2097 230 2172 1 116 -14 179 -66 290 -55 114 -176 238 -288 293 -129
63 -163 67 -554 67 -328 0 -348 -1 -341 -17 22 -56 37 -184 31 -263 -13 -185
-85 -333 -225 -462 -129 -120 -280 -178 -461 -178 -181 0 -332 58 -461 178
-140 129 -212 277 -225 462 -6 79 9 207 31 263 7 16 -14 17 -346 16 -272 0
-368 -4 -414 -15z m1560 -1069 c38 -37 32 -72 -26 -161 l-51 -78 22 -186 21
-185 -26 -70 c-15 -38 -36 -94 -47 -122 -14 -38 -25 -53 -38 -53 -13 0 -24 15
-38 53 -11 28 -32 84 -47 122 l-26 70 21 185 22 186 -51 78 c-58 89 -64 124
-26 161 23 24 30 25 145 25 115 0 122 -1 145 -25z"/>
<path d="M1875 2976 c-179 -57 -297 -191 -325 -366 -6 -37 -10 -275 -10 -557
l0 -493 450 0 c248 0 450 3 450 7 0 23 -507 1423 -515 1422 -5 0 -28 -6 -50
-13z"/>
<path d="M2933 2282 c-139 -389 -253 -711 -253 -715 0 -4 203 -7 450 -7 l450
0 0 493 c0 291 -4 519 -11 557 -19 122 -89 235 -183 299 -46 31 -126 66 -171
75 l-30 6 -252 -708z"/>
<path d="M115 1326 c-40 -17 -84 -63 -101 -103 -21 -50 -20 -570 1 -620 20
-48 41 -71 87 -94 36 -18 102 -19 2458 -19 2390 0 2421 0 2459 20 47 23 77 60
92 109 6 23 9 138 7 317 -3 278 -3 281 -27 316 -13 19 -40 46 -59 59 l-36 24
-2425 2 c-1996 2 -2431 0 -2456 -11z"/>
</g>
</svg>
